<svg xmlns="http://www.w3.org/2000/svg" width="90" height="90" viewBox="0 0 90 90">
 <g stroke="#4b2b24" stroke-width="4" stroke-linejoin="round">
  <path d="M15 68 C36 55 49 33 69 13" fill="none" stroke="#a76d35"/>
  <path d="M46 33 C31 14 57 5 61 23 C66 4 90 14 74 31 C95 25 96 53 76 47 C86 65 61 70 60 50 C48 69 25 54 42 43 C20 44 25 18 46 33Z" fill="#ec8878"/>
  <circle cx="60" cy="37" r="6" fill="#ffd8aa" stroke-width="3"/>
  <path d="M28 62 C14 50 7 65 25 72Z" fill="#4a9a74"/>
  <path d="M72 58 C62 48 55 61 69 68Z" fill="#4a9a74"/>
 </g>
</svg>
