<svg xmlns="http://www.w3.org/2000/svg" viewBox="0 0 512 512"><g stroke="#4B2F2A" stroke-width="18" stroke-linecap="round" stroke-linejoin="round">
<ellipse cx="256" cy="442" rx="126" ry="25" fill="#4B2F2A" opacity=".15" stroke="none"/>
<circle cx="256" cy="256" r="146" fill="#FFF6DE"/><g fill="#FF7A6A"><ellipse cx="256" cy="91" rx="54" ry="78"/><ellipse cx="256" cy="421" rx="54" ry="78"/><ellipse cx="91" cy="256" rx="78" ry="54"/><ellipse cx="421" cy="256" rx="78" ry="54"/></g><g fill="#FF9A86"><ellipse cx="139" cy="139" rx="60" ry="76" transform="rotate(-45 139 139)"/><ellipse cx="373" cy="139" rx="60" ry="76" transform="rotate(45 373 139)"/><ellipse cx="139" cy="373" rx="60" ry="76" transform="rotate(45 139 373)"/><ellipse cx="373" cy="373" rx="60" ry="76" transform="rotate(-45 373 373)"/></g>
<circle cx="256" cy="256" r="125" fill="#FFF6DE"/><ellipse cx="215" cy="244" rx="15" ry="21" fill="#4B2F2A" stroke="none"/><ellipse cx="297" cy="244" rx="15" ry="21" fill="#4B2F2A" stroke="none"/><path d="M220 300q36 38 72 0" fill="none"/><circle cx="180" cy="286" r="16" fill="#FFB7A8" stroke="none"/><circle cx="332" cy="286" r="16" fill="#FFB7A8" stroke="none"/><path d="M256 111q-8-58 49-69-1 56-49 69z" fill="#79D7B1"/>
</g></svg>