<svg xmlns="http://www.w3.org/2000/svg" viewBox="0 0 512 512"><g stroke="#4B2F2A" stroke-width="18" stroke-linecap="round" stroke-linejoin="round">
<ellipse cx="256" cy="442" rx="128" ry="24" fill="#4B2F2A" opacity=".15" stroke="none"/><path d="M132 315c-44-6-55-77-4-94-4-62 66-91 109-52 38-58 131-35 136 36 64 7 68 101 5 113z" fill="#FFF6DE"/><path d="M256 354c-82-47-108-102-70-132 29-23 58-3 70 22 12-25 41-45 70-22 38 30 12 85-70 132z" fill="#FF6B62"/><circle cx="191" cy="201" r="11" fill="#4B2F2A" stroke="none"/><circle cx="321" cy="201" r="11" fill="#4B2F2A" stroke="none"/><path d="M215 247q41 30 82 0" fill="none"/><path d="M201 371h110l-22 58h-66z" fill="#FFC95C"/>
</g></svg>